<svg xmlns="http://www.w3.org/2000/svg" width="1440" height="1100" viewBox="0 0 1440 1100">
<rect x="0" y="0" width="1440" height="1100" rx="0" fill="#090A0C" opacity="1"/>
<line x1="0" y1="0" x2="0" y2="1100" stroke="#11141A" stroke-width="1" opacity="0.35"/>
<line x1="72" y1="0" x2="72" y2="1100" stroke="#11141A" stroke-width="1" opacity="0.35"/>
<line x1="144" y1="0" x2="144" y2="1100" stroke="#11141A" stroke-width="1" opacity="0.35"/>
<line x1="216" y1="0" x2="216" y2="1100" stroke="#11141A" stroke-width="1" opacity="0.35"/>
<line x1="288" y1="0" x2="288" y2="1100" stroke="#11141A" stroke-width="1" opacity="0.35"/>
<line x1="360" y1="0" x2="360" y2="1100" stroke="#11141A" stroke-width="1" opacity="0.35"/>
<line x1="432" y1="0" x2="432" y2="1100" stroke="#11141A" stroke-width="1" opacity="0.35"/>
<line x1="504" y1="0" x2="504" y2="1100" stroke="#11141A" stroke-width="1" opacity="0.35"/>
<line x1="576" y1="0" x2="576" y2="1100" stroke="#11141A" stroke-width="1" opacity="0.35"/>
<line x1="648" y1="0" x2="648" y2="1100" stroke="#11141A" stroke-width="1" opacity="0.35"/>
<line x1="720" y1="0" x2="720" y2="1100" stroke="#11141A" stroke-width="1" opacity="0.35"/>
<line x1="792" y1="0" x2="792" y2="1100" stroke="#11141A" stroke-width="1" opacity="0.35"/>
<line x1="864" y1="0" x2="864" y2="1100" stroke="#11141A" stroke-width="1" opacity="0.35"/>
<line x1="936" y1="0" x2="936" y2="1100" stroke="#11141A" stroke-width="1" opacity="0.35"/>
<line x1="1008" y1="0" x2="1008" y2="1100" stroke="#11141A" stroke-width="1" opacity="0.35"/>
<line x1="1080" y1="0" x2="1080" y2="1100" stroke="#11141A" stroke-width="1" opacity="0.35"/>
<line x1="1152" y1="0" x2="1152" y2="1100" stroke="#11141A" stroke-width="1" opacity="0.35"/>
<line x1="1224" y1="0" x2="1224" y2="1100" stroke="#11141A" stroke-width="1" opacity="0.35"/>
<line x1="1296" y1="0" x2="1296" y2="1100" stroke="#11141A" stroke-width="1" opacity="0.35"/>
<line x1="1368" y1="0" x2="1368" y2="1100" stroke="#11141A" stroke-width="1" opacity="0.35"/>
<line x1="0" y1="0" x2="1440" y2="0" stroke="#11141A" stroke-width="1" opacity="0.35"/>
<line x1="0" y1="72" x2="1440" y2="72" stroke="#11141A" stroke-width="1" opacity="0.35"/>
<line x1="0" y1="144" x2="1440" y2="144" stroke="#11141A" stroke-width="1" opacity="0.35"/>
<line x1="0" y1="216" x2="1440" y2="216" stroke="#11141A" stroke-width="1" opacity="0.35"/>
<line x1="0" y1="288" x2="1440" y2="288" stroke="#11141A" stroke-width="1" opacity="0.35"/>
<line x1="0" y1="360" x2="1440" y2="360" stroke="#11141A" stroke-width="1" opacity="0.35"/>
<line x1="0" y1="432" x2="1440" y2="432" stroke="#11141A" stroke-width="1" opacity="0.35"/>
<line x1="0" y1="504" x2="1440" y2="504" stroke="#11141A" stroke-width="1" opacity="0.35"/>
<line x1="0" y1="576" x2="1440" y2="576" stroke="#11141A" stroke-width="1" opacity="0.35"/>
<line x1="0" y1="648" x2="1440" y2="648" stroke="#11141A" stroke-width="1" opacity="0.35"/>
<line x1="0" y1="720" x2="1440" y2="720" stroke="#11141A" stroke-width="1" opacity="0.35"/>
<line x1="0" y1="792" x2="1440" y2="792" stroke="#11141A" stroke-width="1" opacity="0.35"/>
<line x1="0" y1="864" x2="1440" y2="864" stroke="#11141A" stroke-width="1" opacity="0.35"/>
<line x1="0" y1="936" x2="1440" y2="936" stroke="#11141A" stroke-width="1" opacity="0.35"/>
<line x1="0" y1="1008" x2="1440" y2="1008" stroke="#11141A" stroke-width="1" opacity="0.35"/>
<line x1="0" y1="1080" x2="1440" y2="1080" stroke="#11141A" stroke-width="1" opacity="0.35"/>
<rect x="64" y="32" width="1312" height="64" rx="18" fill="#0D0F13" stroke="#2B303A" stroke-width="1" opacity="1"/>
<g transform="translate(88,48) scale(1.0)" fill="none" stroke="#F4F5F7" stroke-width="2.60" stroke-linecap="round" stroke-linejoin="round"><path d="M7 27 V5 H16 C21 5 24 8 24 12 C24 16 21 19 16 19 H7"/><path d="M16 19 L25 27"/></g>
<text x="130" y="71" fill="#F4F5F7" font-family="Inter, ui-sans-serif, system-ui, sans-serif" font-size="18" font-weight="650">RenderLab</text>
<rect x="232" y="52" width="86" height="26" rx="13" fill="#151821" stroke="#2B303A"/><text x="275" y="69" fill="#9CA3AF" font-family="Inter, ui-sans-serif, system-ui, sans-serif" font-size="10" font-weight="650" text-anchor="middle" letter-spacing="0.4">Closed beta</text>
<text x="1125" y="71" fill="#9CA3AF" font-family="Inter, ui-sans-serif, system-ui, sans-serif" font-size="14" font-weight="600">Sign in</text>
<rect x="1210" y="46" width="140" height="36" rx="10" fill="#F4F5F7"/><text x="1280" y="69" fill="#090A0C" font-family="Inter, ui-sans-serif, system-ui, sans-serif" font-size="13" font-weight="700" text-anchor="middle">Open Create →</text>
<text x="72" y="178" fill="#7C6CF2" font-family="Inter, ui-sans-serif, system-ui, sans-serif" font-size="12" font-weight="700" letter-spacing="1.8">THE CREATIVE WORKSPACE</text>
<text x="72" y="246" fill="#F4F5F7" font-family="Inter, ui-sans-serif, system-ui, sans-serif" font-size="64" font-weight="650">Create images.</text><text x="72" y="316" fill="#F4F5F7" font-family="Inter, ui-sans-serif, system-ui, sans-serif" font-size="64" font-weight="650">Shape them.</text><text x="72" y="386" fill="#F4F5F7" font-family="Inter, ui-sans-serif, system-ui, sans-serif" font-size="64" font-weight="650">Put them in motion.</text>
<text x="74" y="482" fill="#9CA3AF" font-family="Inter, ui-sans-serif, system-ui, sans-serif" font-size="18">RenderLab brings image and video creation, reference-driven edits,</text><text x="74" y="511" fill="#9CA3AF" font-family="Inter, ui-sans-serif, system-ui, sans-serif" font-size="18">reusable media, and retryable generation history into one focused workspace.</text>
<rect x="72" y="566" width="148" height="46" rx="12" fill="#7C6CF2"/><text x="146" y="595" fill="#FFFFFF" font-family="Inter, ui-sans-serif, system-ui, sans-serif" font-size="14" font-weight="700" text-anchor="middle">Open Create →</text>
<rect x="232" y="566" width="108" height="46" rx="12" fill="transparent" stroke="#2B303A"/><text x="286" y="595" fill="#F4F5F7" font-family="Inter, ui-sans-serif, system-ui, sans-serif" font-size="14" font-weight="650" text-anchor="middle">Sign in</text><text x="74" y="646" fill="#9CA3AF" font-family="Inter, ui-sans-serif, system-ui, sans-serif" font-size="12" font-weight="500">Invitation-only access · No public sign-up</text>
<rect x="750" y="148" width="618" height="482" rx="24" fill="#111318" stroke="#2B303A"/><text x="778" y="190" fill="#F4F5F7" font-family="Inter, ui-sans-serif, system-ui, sans-serif" font-size="14" font-weight="700">Create</text><text x="1340" y="190" fill="#9CA3AF" font-family="Inter, ui-sans-serif, system-ui, sans-serif" font-size="12" font-weight="650" text-anchor="end">Image</text>
<rect x="778" y="220" width="320" height="170" rx="16" fill="#171A20" stroke="#2B303A"/><text x="796" y="249" fill="#9CA3AF" font-family="Inter, ui-sans-serif, system-ui, sans-serif" font-size="11" font-weight="650">Prompt</text><text x="796" y="280" fill="#F4F5F7" font-family="Inter, ui-sans-serif, system-ui, sans-serif" font-size="14" font-weight="500">A studio portrait with precise</text><text x="796" y="302" fill="#F4F5F7" font-family="Inter, ui-sans-serif, system-ui, sans-serif" font-size="14" font-weight="500">lighting and a cobalt backdrop.</text>
<rect x="796" y="332" width="84" height="34" rx="10" fill="#20242C" stroke="#7C6CF2"/><text x="838" y="354" fill="#F4F5F7" font-family="Inter, ui-sans-serif, system-ui, sans-serif" font-size="12" font-weight="600" text-anchor="middle">Image</text><rect x="890" y="332" width="84" height="34" rx="10" fill="#171A20" stroke="#2B303A"/><text x="932" y="354" fill="#9CA3AF" font-family="Inter, ui-sans-serif, system-ui, sans-serif" font-size="12" font-weight="600" text-anchor="middle">Video</text><rect x="988" y="332" width="92" height="34" rx="10" fill="#7C6CF2"/><text x="1034" y="354" fill="#FFFFFF" font-family="Inter, ui-sans-serif, system-ui, sans-serif" font-size="11" font-weight="700" text-anchor="middle">Generate</text>
<rect x="778" y="410" width="320" height="78" rx="14" fill="#171A20" stroke="#2B303A"/><rect x="792" y="424" width="52" height="50" rx="10" fill="#2B2F38"/><text x="858" y="444" fill="#F4F5F7" font-family="Inter, ui-sans-serif, system-ui, sans-serif" font-size="12" font-weight="650">@image1</text><text x="858" y="466" fill="#9CA3AF" font-family="Inter, ui-sans-serif, system-ui, sans-serif" font-size="11">Primary image · durable reference</text>
<rect x="1120" y="220" width="220" height="268" rx="18" fill="#151A24" stroke="#2B303A"/><rect x="1138" y="238" width="184" height="214" rx="14" fill="#202634"/><rect x="1164" y="264" width="132" height="162" rx="66" fill="#273248"/><rect x="1182" y="280" width="96" height="102" rx="48" fill="#34405A"/>
<rect x="1120" y="508" width="220" height="76" rx="14" fill="#171A20" stroke="#2B303A"/><text x="1138" y="537" fill="#F4F5F7" font-family="Inter, ui-sans-serif, system-ui, sans-serif" font-size="12" font-weight="600">Result saved to Library</text><text x="1138" y="560" fill="#9CA3AF" font-family="Inter, ui-sans-serif, system-ui, sans-serif" font-size="11">Continue with Edit or Animate</text>
<text x="778" y="540" fill="#9CA3AF" font-family="Inter, ui-sans-serif, system-ui, sans-serif" font-size="11" font-weight="600">One workspace, four verified operations</text>
<g fill="#171A20" stroke="#2B303A"><rect x="778" y="564" width="126" height="34" rx="10"/><rect x="912" y="564" width="116" height="34" rx="10"/><rect x="1036" y="564" width="128" height="34" rx="10"/><rect x="1172" y="564" width="136" height="34" rx="10"/></g><g fill="#9CA3AF" font-family="Inter, ui-sans-serif, system-ui, sans-serif" font-size="12" font-weight="600" text-anchor="middle"><text x="841" y="586">Create Image</text><text x="970" y="586">Edit Image</text><text x="1100" y="586">Create Video</text><text x="1240" y="586">Animate Image</text></g>
<text x="72" y="744" fill="#7C6CF2" font-family="Inter, ui-sans-serif, system-ui, sans-serif" font-size="11" font-weight="700" letter-spacing="1.6">FOUR VERIFIED OPERATIONS</text><text x="72" y="784" fill="#F4F5F7" font-family="Inter, ui-sans-serif, system-ui, sans-serif" font-size="30" font-weight="650">Move from first idea to a reusable creative thread.</text>
<g fill="#111318" stroke="#2B303A"><rect x="72" y="828" width="309" height="192" rx="18"/><rect x="397" y="828" width="309" height="192" rx="18"/><rect x="722" y="828" width="309" height="192" rx="18"/><rect x="1047" y="828" width="309" height="192" rx="18"/></g>
<g font-family="Inter, ui-sans-serif, system-ui, sans-serif"><text x="94" y="862" fill="#7C6CF2" font-size="11" font-weight="700">01</text><text x="94" y="902" fill="#F4F5F7" font-size="17" font-weight="650">Create Image</text><text x="94" y="936" fill="#9CA3AF" font-size="13">Start from a prompt and build a</text><text x="94" y="956" fill="#9CA3AF" font-size="13">durable image result.</text><text x="94" y="994" fill="#9CA3AF" font-size="10" font-weight="600">Create → Library → Activity</text>
<text x="419" y="862" fill="#7C6CF2" font-size="11" font-weight="700">02</text><text x="419" y="902" fill="#F4F5F7" font-size="17" font-weight="650">Edit Image</text><text x="419" y="936" fill="#9CA3AF" font-size="13">Guide a new result with one or two</text><text x="419" y="956" fill="#9CA3AF" font-size="13">owned image references.</text><text x="419" y="994" fill="#9CA3AF" font-size="10" font-weight="600">Create → Library → Activity</text>
<text x="744" y="862" fill="#7C6CF2" font-size="11" font-weight="700">03</text><text x="744" y="902" fill="#F4F5F7" font-size="17" font-weight="650">Create Video</text><text x="744" y="936" fill="#9CA3AF" font-size="13">Create video with curated aspect,</text><text x="744" y="956" fill="#9CA3AF" font-size="13">duration and resolution.</text><text x="744" y="994" fill="#9CA3AF" font-size="10" font-weight="600">Create → Library → Activity</text>
<text x="1069" y="862" fill="#7C6CF2" font-size="11" font-weight="700">04</text><text x="1069" y="902" fill="#F4F5F7" font-size="17" font-weight="650">Animate Image</text><text x="1069" y="936" fill="#9CA3AF" font-size="13">Turn an owned image into motion</text><text x="1069" y="956" fill="#9CA3AF" font-size="13">while preserving the source.</text><text x="1069" y="994" fill="#9CA3AF" font-size="10" font-weight="600">Create → Library → Activity</text></g>
</svg>
