<svg xmlns="http://www.w3.org/2000/svg" width="390" height="844" viewBox="0 0 390 844">
<rect x="0" y="0" width="390" height="844" rx="0" fill="#090A0C"/>
<rect x="16" y="16" width="358" height="56" rx="16" fill="#0D0F13" stroke="#2B303A"/>
<g transform="translate(32,28) scale(0.9375)" fill="none" stroke="#F4F5F7" stroke-width="2.77" stroke-linecap="round" stroke-linejoin="round"><path d="M7 27 V5 H16 C21 5 24 8 24 12 C24 16 21 19 16 19 H7"/><path d="M16 19 L25 27"/></g>
<text x="70" y="50" fill="#F4F5F7" font-family="Inter, ui-sans-serif, system-ui, sans-serif" font-size="16" font-weight="650">RenderLab</text>
<rect x="286" y="27" width="72" height="34" rx="10" fill="#F4F5F7"/><text x="322" y="49" fill="#090A0C" font-family="Inter, ui-sans-serif, system-ui, sans-serif" font-size="12" font-weight="700" text-anchor="middle">Create</text>
<text x="20" y="122" fill="#7C6CF2" font-family="Inter, ui-sans-serif, system-ui, sans-serif" font-size="10" font-weight="700" letter-spacing="1.2">CLOSED-BETA CREATIVE WORKSPACE</text>
<text x="20" y="174" fill="#F4F5F7" font-family="Inter, ui-sans-serif, system-ui, sans-serif" font-size="38" font-weight="650">Create images.</text><text x="20" y="217" fill="#F4F5F7" font-family="Inter, ui-sans-serif, system-ui, sans-serif" font-size="38" font-weight="650">Shape them.</text><text x="20" y="260" fill="#F4F5F7" font-family="Inter, ui-sans-serif, system-ui, sans-serif" font-size="38" font-weight="650">Put them in motion.</text>
<text x="20" y="318" fill="#9CA3AF" font-family="Inter, ui-sans-serif, system-ui, sans-serif" font-size="14">Image and video creation, reference-driven</text><text x="20" y="339" fill="#9CA3AF" font-family="Inter, ui-sans-serif, system-ui, sans-serif" font-size="14">edits, reusable media, and retryable history—</text><text x="20" y="360" fill="#9CA3AF" font-family="Inter, ui-sans-serif, system-ui, sans-serif" font-size="14">kept in one focused workspace.</text>
<rect x="20" y="398" width="146" height="44" rx="12" fill="#7C6CF2"/><text x="93" y="426" fill="#FFFFFF" font-family="Inter, ui-sans-serif, system-ui, sans-serif" font-size="13" font-weight="700" text-anchor="middle">Open Create</text><rect x="176" y="398" width="92" height="44" rx="12" fill="transparent" stroke="#2B303A"/><text x="222" y="426" fill="#F4F5F7" font-family="Inter, ui-sans-serif, system-ui, sans-serif" font-size="13" font-weight="650" text-anchor="middle">Sign in</text><text x="20" y="466" fill="#9CA3AF" font-family="Inter, ui-sans-serif, system-ui, sans-serif" font-size="11" font-weight="500">Invitation-only access · No public sign-up</text>
<rect x="20" y="504" width="350" height="238" rx="20" fill="#111318" stroke="#2B303A"/><text x="38" y="536" fill="#F4F5F7" font-family="Inter, ui-sans-serif, system-ui, sans-serif" font-size="13" font-weight="700">Create</text>
<rect x="38" y="554" width="70" height="34" rx="10" fill="#20242C" stroke="#7C6CF2"/><text x="73" y="576" fill="#F4F5F7" font-family="Inter, ui-sans-serif, system-ui, sans-serif" font-size="12" font-weight="600" text-anchor="middle">Image</text><rect x="116" y="554" width="70" height="34" rx="10" fill="#171A20" stroke="#2B303A"/><text x="151" y="576" fill="#9CA3AF" font-family="Inter, ui-sans-serif, system-ui, sans-serif" font-size="12" font-weight="600" text-anchor="middle">Video</text>
<rect x="38" y="600" width="314" height="64" rx="12" fill="#171A20" stroke="#2B303A"/><text x="52" y="624" fill="#9CA3AF" font-family="Inter, ui-sans-serif, system-ui, sans-serif" font-size="10" font-weight="650">Prompt</text><text x="52" y="647" fill="#F4F5F7" font-family="Inter, ui-sans-serif, system-ui, sans-serif" font-size="12" font-weight="500">Build a cinematic portrait from @image1</text>
<rect x="38" y="678" width="72" height="46" rx="12" fill="#2A3040"/><text x="74" y="706" fill="#F4F5F7" font-family="Inter, ui-sans-serif, system-ui, sans-serif" font-size="10" font-weight="650" text-anchor="middle">@image1</text><text x="124" y="698" fill="#9CA3AF" font-family="Inter, ui-sans-serif, system-ui, sans-serif" font-size="11" font-weight="500">Durable reference attached</text><text x="124" y="716" fill="#9CA3AF" font-family="Inter, ui-sans-serif, system-ui, sans-serif" font-size="10">Edit or Animate after save</text>
<text x="20" y="786" fill="#9CA3AF" font-family="Inter, ui-sans-serif, system-ui, sans-serif" font-size="8" font-weight="700" letter-spacing="0.45">CREATE IMAGE · EDIT IMAGE · CREATE VIDEO · ANIMATE IMAGE</text>
</svg>
