<svg xmlns="http://www.w3.org/2000/svg" width="1440" height="1420" viewBox="0 0 1440 1420">
  <rect width="1440" height="1420" fill="#090A0C"/>
  <style>
    text { font-family: Inter, ui-sans-serif, system-ui, sans-serif; }
    .text { fill:#F4F5F7; } .muted { fill:#9CA3AF; }
    .eyebrow { fill:#B9B0FF; font-weight:650; letter-spacing:1.6px; }
  </style>
  <path d="M0 206H1440M0 406H1440M0 606H1440M0 806H1440" stroke="#171A20" stroke-width="1"/>
  <path d="M224 88V860M624 88V860M1024 88V860" stroke="#13161B" stroke-width="1"/>
  <rect x="0" y="0" width="1440" height="88" fill="#090A0C" fill-opacity=".96"/>
  <g transform="translate(72 26)" stroke="#7C6CF2" stroke-width="4.8" stroke-linecap="round" stroke-linejoin="round" fill="none">
    <path d="M0 0V36"/><path d="M0 3H17C27 3 33 8 33 16S27 27 17 27H0"/><path d="M16 27L33 36"/>
  </g>
  <rect x="87" y="41" width="6.5" height="6.5" rx="2" fill="#F4F5F7"/>
  <text x="124" y="56" class="text" font-size="21" font-weight="650">RenderLab</text>
  <text x="1022" y="53" class="muted" font-size="14">Closed beta</text>
  <rect x="1128" y="23" width="94" height="42" rx="10" fill="#171A20" stroke="#2B303A"/>
  <text x="1155" y="50" class="text" font-size="14" font-weight="600">Sign in</text>
  <rect x="1234" y="23" width="134" height="42" rx="10" fill="#7C6CF2"/>
  <text x="1265" y="50" fill="#FFFFFF" font-size="14" font-weight="650">Open Create</text>
  <text x="72" y="190" class="eyebrow" font-size="14">AI IMAGE + VIDEO WORKSPACE</text>
  <text x="72" y="262" class="text" font-size="64" font-weight="680" letter-spacing="-2.4">Create. Refine.</text>
  <text x="72" y="329" class="text" font-size="64" font-weight="680" letter-spacing="-2.4">Keep the thread.</text>
  <text x="72" y="385" class="muted" font-size="20">Generate images and video, edit with durable references,</text>
  <text x="72" y="416" class="muted" font-size="20">and keep your media and failed-job recovery in one creative loop.</text>
  <rect x="72" y="458" width="146" height="48" rx="11" fill="#7C6CF2"/>
  <text x="102" y="489" fill="#fff" font-size="15" font-weight="650">Open Create</text>
  <rect x="230" y="458" width="108" height="48" rx="11" fill="#171A20" stroke="#2B303A"/>
  <text x="262" y="489" class="text" font-size="15" font-weight="600">Sign in</text>
  <text x="72" y="541" class="muted" font-size="13">Closed beta · invited accounts can sign in from Settings</text>
  <rect x="704" y="150" width="664" height="456" rx="24" fill="#111318" stroke="#2B303A"/>
  <rect x="728" y="174" width="616" height="50" rx="12" fill="#171A20"/>
  <text x="750" y="205" class="muted" font-size="13">CREATE</text>
  <rect x="1192" y="185" width="64" height="28" rx="7" fill="#20242C"/>
  <text x="1211" y="204" class="text" font-size="12">Image</text>
  <rect x="1264" y="185" width="64" height="28" rx="7" fill="#111318" stroke="#2B303A"/>
  <text x="1282" y="204" class="muted" font-size="12">Video</text>
  <rect x="728" y="246" width="616" height="118" rx="16" fill="#0D0F13" stroke="#2B303A"/>
  <text x="752" y="278" class="muted" font-size="12">PROMPT</text>
  <text x="752" y="311" class="text" font-size="16">Place @image1 in a quiet editorial scene, soft window light,</text>
  <text x="752" y="335" class="text" font-size="16">preserve the subject and refine the material details.</text>
  <text x="728" y="401" class="muted" font-size="12">REFERENCES</text>
  <rect x="728" y="418" width="104" height="104" rx="14" fill="#20242C" stroke="#3A4050"/>
  <rect x="740" y="430" width="80" height="60" rx="10" fill="#2B303A"/>
  <path d="M746 480L768 458L785 471L800 451L815 480Z" fill="#7C6CF2" fill-opacity=".65"/>
  <text x="744" y="510" class="text" font-size="11">@image1</text>
  <rect x="846" y="418" width="104" height="104" rx="14" fill="#171A20" stroke="#2B303A" stroke-dasharray="5 5"/>
  <text x="878" y="476" class="muted" font-size="22">+</text>
  <rect x="1128" y="472" width="216" height="50" rx="12" fill="#7C6CF2"/>
  <text x="1200" y="503" fill="#fff" font-size="15" font-weight="650">Generate</text>
  <rect x="728" y="545" width="190" height="37" rx="9" fill="#171A20"/>
  <text x="750" y="568" class="muted" font-size="12">4:5 · Image · Advanced</text>
  <rect x="928" y="545" width="192" height="37" rx="9" fill="#171A20"/>
  <text x="950" y="568" class="muted" font-size="12">Durable reference attached</text>
  <text x="72" y="700" class="eyebrow" font-size="13">FOUR VERIFIED CREATIVE OPERATIONS</text>
  <text x="72" y="746" class="text" font-size="36" font-weight="650" letter-spacing="-1.2">One workspace, different creative intents.</text>
  <rect x="72" y="784" width="303" height="150" rx="18" fill="#111318" stroke="#2B303A"/>
  <text x="96" y="817" fill="#B9B0FF" font-size="12" font-weight="650">01</text><text x="96" y="856" class="text" font-size="20" font-weight="650">Create Image</text><text x="96" y="885" class="muted" font-size="14">Prompt → durable image result</text>
  <rect x="391" y="784" width="303" height="150" rx="18" fill="#111318" stroke="#2B303A"/>
  <text x="415" y="817" fill="#B9B0FF" font-size="12" font-weight="650">02</text><text x="415" y="856" class="text" font-size="20" font-weight="650">Edit Image</text><text x="415" y="885" class="muted" font-size="14">Reference-aware image refinement</text>
  <rect x="710" y="784" width="303" height="150" rx="18" fill="#111318" stroke="#2B303A"/>
  <text x="734" y="817" fill="#B9B0FF" font-size="12" font-weight="650">03</text><text x="734" y="856" class="text" font-size="20" font-weight="650">Create Video</text><text x="734" y="885" class="muted" font-size="14">Prompt → video with delivery controls</text>
  <rect x="1029" y="784" width="339" height="150" rx="18" fill="#111318" stroke="#2B303A"/>
  <text x="1053" y="817" fill="#B9B0FF" font-size="12" font-weight="650">04</text><text x="1053" y="856" class="text" font-size="20" font-weight="650">Animate Image</text><text x="1053" y="885" class="muted" font-size="14">Turn a durable image into motion</text>
  <rect x="72" y="1006" width="1296" height="296" rx="24" fill="#111318" stroke="#2B303A"/>
  <text x="104" y="1052" class="eyebrow" font-size="13">THE CREATIVE LOOP STAYS INTACT</text>
  <text x="104" y="1097" class="text" font-size="34" font-weight="650">Create → Library → Continue → Recover</text>
  <text x="104" y="1130" class="muted" font-size="15">Durable uploads and results stay reusable; Activity keeps real job history and failed-job Retry.</text>
  <g transform="translate(106 1170)">
    <rect x="0" y="0" width="214" height="82" rx="14" fill="#171A20"/><text x="22" y="33" class="text" font-size="15" font-weight="650">Reference</text><text x="22" y="58" class="muted" font-size="12">durable media asset</text><path d="M225 41H259" stroke="#7C6CF2" stroke-width="2"/><path d="M254 35L260 41L254 47" fill="none" stroke="#7C6CF2" stroke-width="2"/>
    <rect x="270" y="0" width="214" height="82" rx="14" fill="#171A20"/><text x="292" y="33" class="text" font-size="15" font-weight="650">Create</text><text x="292" y="58" class="muted" font-size="12">task-focused generation</text><path d="M495 41H529" stroke="#7C6CF2" stroke-width="2"/><path d="M524 35L530 41L524 47" fill="none" stroke="#7C6CF2" stroke-width="2"/>
    <rect x="540" y="0" width="214" height="82" rx="14" fill="#171A20"/><text x="562" y="33" class="text" font-size="15" font-weight="650">Library</text><text x="562" y="58" class="muted" font-size="12">organize + reuse</text><path d="M765 41H799" stroke="#7C6CF2" stroke-width="2"/><path d="M794 35L800 41L794 47" fill="none" stroke="#7C6CF2" stroke-width="2"/>
    <rect x="810" y="0" width="214" height="82" rx="14" fill="#171A20"/><text x="832" y="33" class="text" font-size="15" font-weight="650">Activity</text><text x="832" y="58" class="muted" font-size="12">history + Retry</text>
  </g>
  <text x="72" y="1372" class="muted" font-size="13">RenderLab is currently in closed beta. No public self-service sign-up is implied by this launch surface.</text>
</svg>