<svg xmlns="http://www.w3.org/2000/svg" width="1740" height="1120" viewBox="0 0 1740 1120">
  <style>
    text { font-family: Inter, ui-sans-serif, system-ui, sans-serif; fill:#F4F5F7 }
    .muted { fill:#9CA3AF }
    .title { font-size:28px; font-weight:600 }
    .body { font-size:14px }
    .label { font-size:12px; font-weight:600 }
    .small { font-size:11px }
  </style>
  <rect width="1740" height="1120" fill="#090A0C"/>
  <text x="54" y="54" class="title">Library v0.1 — media-first durable assets</text>
  <text x="54" y="82" class="body muted">Newest-first RenderLab media_assets, compact kind filtering, deep-linked cards, and a truthful empty state. Organization features wait for real contracts.</text>

  <g transform="translate(54,120)">
    <rect width="1170" height="930" rx="22" fill="#090A0C" stroke="#2B303A"/>
    <rect width="206" height="930" rx="22" fill="#111318"/>
    <text x="28" y="48" class="label">RenderLab</text>
    <rect x="16" y="78" width="174" height="40" rx="8" fill="#171A20"/>
    <text x="48" y="103" class="body muted">Create</text>
    <rect x="16" y="126" width="174" height="40" rx="8" fill="#20242C"/>
    <text x="48" y="151" class="body">Library</text>
    <text x="28" y="850" class="small muted">Activity</text>
    <text x="28" y="890" class="small muted">Settings</text>

    <rect x="206" width="964" height="56" fill="#0D0F13"/>
    <text x="230" y="35" class="label">Library</text>

    <g transform="translate(246,102)">
      <text x="0" y="32" class="title">Library</text>
      <text x="0" y="58" class="body muted">Browse durable media and continue from the work you want to keep.</text>

      <g transform="translate(0,94)">
        <rect width="222" height="40" rx="9" fill="#171A20"/>
        <rect x="4" y="4" width="70" height="32" rx="7" fill="#20242C"/>
        <text x="28" y="25" class="small">All</text>
        <text x="93" y="25" class="small muted">Images</text>
        <text x="164" y="25" class="small muted">Videos</text>
        <text x="760" y="25" class="small muted">Newest first</text>
      </g>

      <g transform="translate(0,158)">
        <g>
          <rect width="214" height="246" rx="12" fill="#111318" stroke="#2B303A"/>
          <rect x="1" y="1" width="212" height="182" rx="11" fill="#32465A"/>
          <circle cx="108" cy="92" r="46" fill="#536F8A"/>
          <text x="14" y="207" class="small">A blue sphere in soft studio light…</text>
          <text x="14" y="229" class="small muted">Image · Today</text>
        </g>
        <g transform="translate(230,0)">
          <rect width="214" height="246" rx="12" fill="#111318" stroke="#2B303A"/>
          <rect x="1" y="1" width="212" height="182" rx="11" fill="#4A342B"/>
          <rect x="77" y="42" width="60" height="100" rx="30" fill="#C08052"/>
          <text x="14" y="207" class="small">Warm editorial portrait, subtle grain…</text>
          <text x="14" y="229" class="small muted">Image · Today</text>
        </g>
        <g transform="translate(460,0)">
          <rect width="214" height="246" rx="12" fill="#111318" stroke="#2B303A"/>
          <rect x="1" y="1" width="212" height="182" rx="11" fill="#1E293B"/>
          <polygon points="98,74 98,112 132,93" fill="#F4F5F7" opacity="0.9"/>
          <rect x="12" y="12" width="46" height="23" rx="7" fill="#111318" opacity="0.82"/>
          <text x="24" y="28" class="small">Video</text>
          <text x="14" y="207" class="small">Slow camera move through a rainy city…</text>
          <text x="14" y="229" class="small muted">Video · Yesterday</text>
        </g>
        <g transform="translate(690,0)">
          <rect width="214" height="246" rx="12" fill="#111318" stroke="#2B303A"/>
          <rect x="1" y="1" width="212" height="182" rx="11" fill="#28362D"/>
          <circle cx="65" cy="73" r="28" fill="#54705C"/>
          <circle cx="147" cy="112" r="38" fill="#415A49"/>
          <text x="14" y="207" class="small">Minimal moss-covered sculptural forms…</text>
          <text x="14" y="229" class="small muted">Image · Aug 25</text>
        </g>

        <g transform="translate(0,266)">
          <rect width="214" height="246" rx="12" fill="#111318" stroke="#2B303A"/>
          <rect x="1" y="1" width="212" height="182" rx="11" fill="#403743"/>
          <text x="14" y="207" class="small">Abstract translucent glass studies…</text>
          <text x="14" y="229" class="small muted">Image · Aug 25</text>
        </g>
        <g transform="translate(230,266)">
          <rect width="214" height="246" rx="12" fill="#111318" stroke="#2B303A"/>
          <rect x="1" y="1" width="212" height="182" rx="11" fill="#3D3025"/>
          <text x="14" y="207" class="small">Product shot on textured sandstone…</text>
          <text x="14" y="229" class="small muted">Image · Aug 24</text>
        </g>
        <g transform="translate(460,266)">
          <rect width="214" height="246" rx="12" fill="#111318" stroke="#2B303A"/>
          <rect x="1" y="1" width="212" height="182" rx="11" fill="#21333B"/>
          <polygon points="98,74 98,112 132,93" fill="#F4F5F7" opacity="0.9"/>
          <text x="14" y="207" class="small">Ocean surface at night, gentle drift…</text>
          <text x="14" y="229" class="small muted">Video · Aug 24</text>
        </g>
        <g transform="translate(690,266)">
          <rect width="214" height="246" rx="12" fill="#111318" stroke="#2B303A"/>
          <rect x="1" y="1" width="212" height="182" rx="11" fill="#3A3B2B"/>
          <text x="14" y="207" class="small">Botanical macro with hard side light…</text>
          <text x="14" y="229" class="small muted">Image · Aug 23</text>
        </g>
      </g>
    </g>
  </g>

  <g transform="translate(1280,120)">
    <rect width="390" height="844" rx="28" fill="#090A0C" stroke="#2B303A"/>
    <rect width="390" height="56" rx="28" fill="#0D0F13"/>
    <text x="20" y="35" class="label">Library</text>
    <text x="18" y="104" style="font-size:24px;font-weight:600">Library</text>
    <text x="18" y="129" class="small muted">Durable media you can reuse.</text>
    <rect x="18" y="154" width="214" height="40" rx="9" fill="#171A20"/>
    <rect x="22" y="158" width="67" height="32" rx="7" fill="#20242C"/>
    <text x="45" y="179" class="small">All</text>
    <text x="106" y="179" class="small muted">Images</text>
    <text x="170" y="179" class="small muted">Videos</text>

    <g transform="translate(18,214)">
      <g>
        <rect width="171" height="211" rx="12" fill="#111318" stroke="#2B303A"/>
        <rect x="1" y="1" width="169" height="148" rx="11" fill="#32465A"/>
        <circle cx="86" cy="74" r="35" fill="#536F8A"/>
        <text x="11" y="172" class="small">A blue sphere in soft…</text>
        <text x="11" y="194" class="small muted">Image · Today</text>
      </g>
      <g transform="translate(183,0)">
        <rect width="171" height="211" rx="12" fill="#111318" stroke="#2B303A"/>
        <rect x="1" y="1" width="169" height="148" rx="11" fill="#4A342B"/>
        <text x="11" y="172" class="small">Warm editorial portrait…</text>
        <text x="11" y="194" class="small muted">Image · Today</text>
      </g>
      <g transform="translate(0,223)">
        <rect width="171" height="211" rx="12" fill="#111318" stroke="#2B303A"/>
        <rect x="1" y="1" width="169" height="148" rx="11" fill="#1E293B"/>
        <polygon points="73,57 73,91 104,74" fill="#F4F5F7" opacity="0.9"/>
        <text x="11" y="172" class="small">Rainy city camera move…</text>
        <text x="11" y="194" class="small muted">Video · Yesterday</text>
      </g>
      <g transform="translate(183,223)">
        <rect width="171" height="211" rx="12" fill="#111318" stroke="#2B303A"/>
        <rect x="1" y="1" width="169" height="148" rx="11" fill="#28362D"/>
        <text x="11" y="172" class="small">Moss sculptural forms…</text>
        <text x="11" y="194" class="small muted">Image · Aug 25</text>
      </g>
    </g>

    <rect x="0" y="780" width="390" height="64" fill="#111318"/>
    <text x="49" y="818" class="small muted">Create</text>
    <text x="160" y="818" class="small">Library</text>
    <text x="279" y="818" class="small muted">Activity</text>
  </g>

  <g transform="translate(1280,986)">
    <rect width="390" height="88" rx="16" fill="#111318" stroke="#2B303A"/>
    <text x="18" y="30" class="label">Empty-state rule</text>
    <text x="18" y="54" class="small muted">No media yet. Create something and saved results will appear here.</text>
    <text x="18" y="73" class="small">Create media →</text>
  </g>
</svg>
