<svg xmlns="http://www.w3.org/2000/svg" width="1320" height="1980" viewBox="0 0 1320 1980">
<defs>
  <linearGradient id="bg" x1="0" y1="0" x2="1" y2="1"><stop stop-color="#050609"/><stop offset=".72" stop-color="#090a12"/><stop offset="1" stop-color="#0c0910"/></linearGradient>
  <linearGradient id="violet" x1="0" y1="0" x2="1" y2="1"><stop stop-color="#a78cff"/><stop offset="1" stop-color="#6b75ff"/></linearGradient>
  <style>text{font-family:Inter,ui-sans-serif,system-ui,sans-serif;fill:#f4f4f8}.muted{fill:#999baa}.dim{fill:#6f7282}.violet{fill:#b7a8ff}.warm{fill:#ffc18a}.danger{fill:#ff9ba7}.h1{font-size:28px;font-weight:690;letter-spacing:-.03em}.h2{font-size:17px;font-weight:650}.body{font-size:12px}.small{font-size:10px}.label{font-size:9px;font-weight:720;letter-spacing:.11em}.chip{font-size:10px;font-weight:650}</style>
</defs>
<rect width="1320" height="1980" fill="#050609"/><text x="34" y="42" class="h2">Phase 27 v0.2 — 390px trust register</text><text x="34" y="64" class="small muted">Same account/security logic at narrow width · no left rail · no fixed bottom dock · no fake future controls</text>

<g transform="translate(34 94)"><rect width="390" height="860" rx="25" fill="url(#bg)" stroke="#fff" stroke-opacity=".10"/><rect x="14" y="14" width="362" height="52" rx="11" fill="#0b0c12" stroke="#fff" stroke-opacity=".08"/><text x="30" y="46" class="label">R</text><text x="281" y="46" class="small muted">Activity</text><text x="332" y="46" class="small">Settings</text>
<g transform="translate(20 94)"><text x="0" y="12" class="label muted">ACCOUNT / SECURITY</text><text x="0" y="49" class="h1">Settings</text><text x="0" y="73" class="body muted">Manage your account, access and security.</text><line x1="0" y1="100" x2="350" y2="100" stroke="#fff" stroke-opacity=".10"/>
<text x="0" y="126" class="label muted">ACCOUNT</text><text x="0" y="155" class="small muted">SIGN-IN EMAIL</text><text x="0" y="181" class="h2">creator@renderlab.test</text><text x="0" y="202" class="small muted">Used to sign in. Email changes are not available.</text><line x1="0" y1="226" x2="350" y2="226" stroke="#fff" stroke-opacity=".08"/>
<text x="0" y="252" class="label muted">ACCESS</text><rect x="0" y="269" width="78" height="26" rx="8" fill="#55d8ad" fill-opacity=".11"/><text x="19" y="286" class="small">Active</text><text x="0" y="317" class="small muted">Closed Beta access is active for this account.</text><line x1="0" y1="342" x2="350" y2="342" stroke="#fff" stroke-opacity=".08"/>
<text x="0" y="368" class="label muted">SECURITY</text><text x="0" y="396" class="h2">Password</text><text x="0" y="418" class="small muted">Changing it revokes other sessions.</text><rect x="0" y="438" width="350" height="44" rx="10" fill="#8d74ff" fill-opacity=".14" stroke="#b29fff" stroke-opacity=".23"/><text x="126" y="465" class="chip">Change password</text><line x1="0" y1="508" x2="350" y2="508" stroke="#fff" stroke-opacity=".08"/>
<text x="0" y="534" class="label muted">SESSIONS</text><text x="0" y="562" class="h2">Global sign-out</text><text x="0" y="584" class="small muted">Ends sessions on every device and browser.</text><rect x="0" y="604" width="350" height="44" rx="10" fill="#8a2631" fill-opacity=".11" stroke="#ff8997" stroke-opacity=".25"/><text x="114" y="631" class="chip danger">Sign out everywhere</text><line x1="0" y1="674" x2="350" y2="674" stroke="#fff" stroke-opacity=".08"/>
<text x="0" y="700" class="label muted">PRIVILEGED</text><text x="0" y="729" class="h2">Admin</text><text x="0" y="751" class="small muted">Only after a fresh active-admin check.</text><text x="0" y="785" class="chip violet">Open Admin →</text></g></g>

<g transform="translate(465 94)"><rect width="390" height="720" rx="25" fill="url(#bg)" stroke="#fff" stroke-opacity=".10"/><rect x="14" y="14" width="362" height="52" rx="11" fill="#0b0c12" stroke="#fff" stroke-opacity=".08"/><text x="30" y="46" class="label">R</text><text x="330" y="46" class="small">Settings</text>
<g transform="translate(20 94)"><text x="0" y="12" class="label muted">ACCOUNT / SIGN IN</text><text x="0" y="49" class="h1">Settings</text><text x="0" y="73" class="body muted">Sign in to your invited RenderLab account.</text><line x1="0" y1="100" x2="350" y2="100" stroke="#fff" stroke-opacity=".10"/>
<text x="0" y="132" class="small muted">EMAIL</text><rect x="0" y="146" width="350" height="46" rx="10" fill="#08090d" stroke="#fff" stroke-opacity=".13"/><text x="14" y="175" class="body muted">name@example.test</text><text x="0" y="230" class="small muted">PASSWORD</text><text x="266" y="230" class="small violet">Forgot password?</text><rect x="0" y="244" width="350" height="46" rx="10" fill="#08090d" stroke="#fff" stroke-opacity=".13"/><text x="14" y="273" class="body muted">••••••••••••</text><text x="306" y="273" class="small">Show</text><rect x="0" y="322" width="350" height="46" rx="10" fill="url(#violet)" opacity=".86"/><text x="156" y="350" class="chip">Sign in</text><line x1="0" y1="401" x2="350" y2="401" stroke="#fff" stroke-opacity=".08"/><text x="0" y="429" class="label muted">INVITATION-ONLY CLOSED BETA</text><text x="0" y="452" class="small muted">No public account creation.</text><text x="0" y="472" class="small muted">Recovery uses the sign-in email above.</text><rect x="0" y="510" width="350" height="72" rx="10" fill="#40325f" fill-opacity=".13" stroke="#ab91ff" stroke-opacity=".16"/><text x="14" y="536" class="chip">Recovery request sent</text><text x="14" y="558" class="small muted">If this email can receive a link, check its inbox.</text></g></g>

<g transform="translate(896 94)"><rect width="390" height="860" rx="25" fill="url(#bg)" stroke="#fff" stroke-opacity=".10"/><rect x="14" y="14" width="362" height="52" rx="11" fill="#0b0c12" stroke="#fff" stroke-opacity=".08"/><text x="30" y="46" class="label">R</text><text x="330" y="46" class="small">Settings</text>
<g transform="translate(20 94)"><text x="0" y="12" class="small violet">← Settings</text><text x="0" y="55" class="h1">Change password</text><text x="0" y="80" class="body muted">Confirm your current password first.</text><line x1="0" y1="107" x2="350" y2="107" stroke="#fff" stroke-opacity=".10"/>
<text x="0" y="139" class="small muted">CURRENT PASSWORD</text><rect x="0" y="153" width="350" height="46" rx="10" fill="#08090d" stroke="#fff" stroke-opacity=".13"/><text x="14" y="182" class="body muted">••••••••••</text><text x="306" y="182" class="small">Show</text><text x="0" y="238" class="small muted">NEW PASSWORD</text><rect x="0" y="252" width="350" height="46" rx="10" fill="#08090d" stroke="#fff" stroke-opacity=".13"/><text x="14" y="281" class="body muted">••••••••••••</text><text x="306" y="281" class="small">Show</text><text x="0" y="337" class="small muted">CONFIRM NEW PASSWORD</text><rect x="0" y="351" width="350" height="46" rx="10" fill="#08090d" stroke="#fff" stroke-opacity=".13"/><text x="14" y="380" class="body muted">••••••••••••</text><text x="306" y="380" class="small">Show</text><text x="0" y="426" class="small muted">8+ characters · passwords match</text><rect x="0" y="452" width="350" height="88" rx="10" fill="#5c4a15" fill-opacity=".11" stroke="#e8c069" stroke-opacity=".16"/><text x="14" y="479" class="small muted">Security effect</text><text x="14" y="501" class="small muted">This browser stays signed in.</text><text x="14" y="521" class="small muted">Other sessions are revoked.</text><rect x="0" y="573" width="350" height="46" rx="10" fill="url(#violet)" opacity=".86"/><text x="126" y="601" class="chip">Update password</text></g></g>

<g transform="translate(34 1000)"><rect width="390" height="720" rx="25" fill="url(#bg)" stroke="#fff" stroke-opacity=".10"/><rect x="14" y="14" width="362" height="52" rx="11" fill="#0b0c12" stroke="#fff" stroke-opacity=".08"/><text x="30" y="46" class="label">R</text><text x="330" y="46" class="small">Settings</text>
<g transform="translate(20 94)"><text x="0" y="12" class="label violet">VERIFIED RECOVERY LINK</text><text x="0" y="50" class="h1">Set a new password</text><text x="0" y="75" class="body muted">This short-lived recovery context was verified.</text><line x1="0" y1="103" x2="350" y2="103" stroke="#fff" stroke-opacity=".10"/>
<text x="0" y="135" class="small muted">NEW PASSWORD</text><rect x="0" y="149" width="350" height="46" rx="10" fill="#08090d" stroke="#fff" stroke-opacity=".13"/><text x="14" y="178" class="body muted">••••••••••••</text><text x="306" y="178" class="small">Show</text><text x="0" y="234" class="small muted">CONFIRM NEW PASSWORD</text><rect x="0" y="248" width="350" height="46" rx="10" fill="#08090d" stroke="#fff" stroke-opacity=".13"/><text x="14" y="277" class="body muted">••••••••••••</text><text x="306" y="277" class="small">Show</text><text x="0" y="323" class="small muted">8+ characters · passwords match</text><rect x="0" y="349" width="350" height="100" rx="10" fill="#40325f" fill-opacity=".14" stroke="#ab91ff" stroke-opacity=".18"/><text x="14" y="376" class="small muted">No Current password field appears because</text><text x="14" y="396" class="small muted">the recovery marker is valid.</text><text x="14" y="421" class="small muted">Older sessions are revoked after update.</text><rect x="0" y="482" width="350" height="46" rx="10" fill="url(#violet)" opacity=".86"/><text x="118" y="510" class="chip">Set new password</text></g></g>

<g transform="translate(465 1000)"><rect width="390" height="720" rx="25" fill="url(#bg)" stroke="#fff" stroke-opacity=".10"/><rect x="14" y="14" width="362" height="52" rx="11" fill="#0b0c12" stroke="#fff" stroke-opacity=".08"/><text x="30" y="46" class="label">R</text><text x="330" y="46" class="small">Settings</text>
<g transform="translate(20 94)"><text x="0" y="12" class="label muted">ACCOUNT / ACCESS</text><text x="0" y="50" class="h1">Settings</text><text x="0" y="75" class="body muted">Manage your account, access and security.</text><line x1="0" y1="103" x2="350" y2="103" stroke="#fff" stroke-opacity=".10"/><text x="0" y="134" class="label muted">ACCESS</text><rect x="0" y="151" width="102" height="27" rx="8" fill="#92582f" fill-opacity=".18"/><text x="18" y="169" class="small warm">Suspended</text><text x="0" y="204" class="small muted">Private product access is paused.</text><text x="0" y="224" class="small muted">Security controls remain available.</text><line x1="0" y1="252" x2="350" y2="252" stroke="#fff" stroke-opacity=".08"/><text x="0" y="281" class="label muted">SECURITY</text><text x="0" y="310" class="h2">Password</text><rect x="0" y="329" width="350" height="44" rx="10" fill="#8d74ff" fill-opacity=".14"/><text x="126" y="356" class="chip">Change password</text><line x1="0" y1="400" x2="350" y2="400" stroke="#fff" stroke-opacity=".08"/><text x="0" y="429" class="label muted">SESSIONS</text><text x="0" y="458" class="h2">Global sign-out</text><text x="0" y="480" class="small muted">Ends sessions on every device and browser.</text><rect x="0" y="501" width="350" height="44" rx="10" fill="#8a2631" fill-opacity=".11" stroke="#ff8997" stroke-opacity=".25"/><text x="114" y="528" class="chip danger">Sign out everywhere</text></g></g>

<g transform="translate(896 1000)"><rect width="390" height="720" rx="25" fill="#090a0f" stroke="#fff" stroke-opacity=".08"/><g transform="translate(20 38)"><text x="0" y="0" class="label muted">DEFERRED CAPABILITY GAPS</text><text x="0" y="43" class="h2">Not fake controls</text><text x="0" y="77" class="body muted">Common in mature account security, but</text><text x="0" y="97" class="body muted">they need real product/security contracts first.</text><line x1="0" y1="126" x2="350" y2="126" stroke="#fff" stroke-opacity=".09"/><text x="0" y="160" class="h2">MFA / passkeys</text><text x="0" y="184" class="small muted">Highest-priority security follow-up.</text><text x="0" y="222" class="h2">Session / device list</text><text x="0" y="246" class="small muted">Selective revoke; no fabricated telemetry.</text><text x="0" y="284" class="h2">Change sign-in email</text><text x="0" y="308" class="small muted">Requires identity + verification semantics.</text><text x="0" y="346" class="h2">Delete / export account data</text><text x="0" y="370" class="small muted">Requires durable-media retention semantics.</text><line x1="0" y1="405" x2="350" y2="405" stroke="#fff" stroke-opacity=".09"/><text x="0" y="440" class="small muted">Intentionally absent for now:</text><text x="0" y="464" class="small muted">profile avatar/name · notifications · billing</text><text x="0" y="484" class="small muted">API keys · theme/language-only filler</text><text x="0" y="540" class="label violet">PHASE 27 RULE</text><text x="0" y="568" class="small muted">Make existing capability feel complete.</text><text x="0" y="588" class="small muted">Do not pretend missing capability exists.</text></g></g>

<text x="34" y="1772" class="label muted">NARROW ACCEPTANCE</text><text x="34" y="1802" class="small muted">44px practical targets · no horizontal overflow · Show/Hide keyboard reachable · global sign-out scope explicit · same server-owned truth · reduced-motion static equivalent</text>
</svg>